<?xml version="1.0" encoding="UTF-8"?>
<svg id="_Слой_1" data-name="Слой_1" xmlns="http://www.w3.org/2000/svg" version="1.1" viewBox="0 0 1080 1080" >
  <defs>
    <style>
      .st0 {
        fill:rgb(255, 255, 255);
      }
    </style>
  </defs>
  <path class="st0" d="M644.07,468.54s0-.03,0-.05c0-.02,0-.04,0-.05,0-.04,0-.09,0-.13,0-.03,0-.07,0-.1,0-.04-.01-.09-.02-.13,0-.03-.01-.07-.02-.1,0-.04-.02-.09-.03-.13,0-.03-.01-.06-.02-.09-.01-.04-.02-.09-.04-.13,0-.03-.02-.06-.03-.09-.02-.05-.03-.1-.05-.14,0-.02-.02-.05-.03-.07-.06-.14-.12-.28-.2-.41-.01-.02-.02-.04-.03-.06-.03-.05-.06-.09-.09-.14-.01-.02-.03-.04-.05-.07-.03-.04-.06-.08-.09-.12-.02-.02-.04-.05-.06-.07-.03-.04-.06-.07-.09-.11-.02-.02-.04-.05-.06-.07-.03-.03-.06-.07-.09-.1-.02-.02-.05-.05-.07-.07-.03-.03-.06-.06-.1-.09-.03-.02-.05-.04-.08-.07-.03-.03-.07-.05-.1-.08-.03-.02-.06-.04-.08-.06-.03-.02-.07-.05-.11-.07-.03-.02-.06-.04-.09-.06-.01,0-.02-.02-.04-.02-.03-.02-.05-.03-.08-.04-.03-.02-.06-.03-.09-.05-.04-.02-.08-.04-.13-.06-.02-.01-.04-.02-.07-.03l-100.65-45.47c-.9-.4-1.92-.4-2.82,0l-100.65,45.47s-.04.02-.06.03c-.04.02-.09.04-.13.07-.03.02-.06.03-.09.05-.03.01-.05.03-.08.04-.01,0-.02.02-.04.02-.03.02-.06.04-.09.06-.04.02-.07.05-.1.07-.03.02-.06.04-.08.06-.03.03-.07.05-.1.08-.03.02-.05.04-.08.07-.03.03-.06.06-.1.09-.02.02-.05.05-.07.07-.03.03-.06.06-.09.1-.02.02-.04.05-.06.07-.03.03-.06.07-.09.11-.02.02-.04.05-.06.07-.03.04-.06.08-.08.12-.02.02-.03.05-.05.07-.03.04-.06.09-.08.13-.01.02-.02.04-.04.06-.04.07-.07.13-.11.2,0,0,0,0,0,.01-.03.06-.06.13-.09.2-.01.03-.02.05-.03.08-.02.05-.03.09-.05.14,0,.03-.02.06-.03.09-.01.04-.03.09-.04.13,0,.03-.02.06-.02.1,0,.04-.02.09-.03.13,0,.03-.01.07-.02.1,0,.04-.01.09-.02.13,0,.03,0,.07,0,.1,0,.04,0,.09,0,.13,0,.02,0,.04,0,.05,0,.02,0,.03,0,.05,0,.02,0,.04,0,.06v135.14c0,1.27.7,2.43,1.83,3.03l100.65,53.15s.01,0,.02,0c.03.01.06.03.08.04.04.02.08.04.12.06.03.01.06.03.09.04.04.02.08.03.12.05.03.01.06.02.09.03.04.01.08.03.12.04.03,0,.06.02.09.03.04.01.08.02.12.03.03,0,.06.01.09.02.04,0,.09.02.13.02.03,0,.06,0,.09.01.05,0,.1.01.15.01.02,0,.05,0,.07,0,.07,0,.15,0,.22,0h0c.07,0,.15,0,.22,0,.02,0,.05,0,.07,0,.05,0,.1,0,.15-.01.03,0,.06,0,.08-.01.04,0,.09-.01.13-.02.03,0,.06-.01.09-.02.04,0,.08-.02.13-.03.03,0,.06-.02.09-.03.04-.01.08-.02.12-.04.03-.01.06-.02.09-.03.04-.01.08-.03.12-.05.03-.01.06-.02.09-.04.04-.02.08-.04.12-.06.03-.01.05-.03.08-.04,0,0,.01,0,.02,0l100.65-53.15c1.12-.59,1.83-1.76,1.83-3.03v-135.14s0-.04,0-.06ZM543.42,636.58v-20.38l43.2-46.51,11.09,8.44-54.29,58.45ZM442.78,511.4v-37.13l43.47,22.96v37.13l-43.47-22.96ZM493.1,500.85l43.47,22.96v37.13l-43.47-22.96v-37.13ZM570.28,486.98l14.04,7.39-39.45,20.77,25.41-28.16ZM543.42,523.8l35.86-18.94-35.86,35.86v-16.92ZM591.67,490.5l-11.27-5.93,36.1-7.14-24.83,13.07ZM535.48,515.32l-16.91-8.9,28.54-31.63,16.91,8.9-28.54,31.63ZM512.31,503.13l-18.76-9.88,28.54-31.63,18.76,9.88-28.54,31.63ZM536.58,568.68v37.96l-17.34-9.16v-37.96l17.34,9.16ZM543.42,606.13v-21.14l44.13-47.51,11.39,8.88-55.52,59.77ZM543.42,574.93v-24.52l44.79-44.79,11.48,8.73-56.27,60.58ZM593.1,500.74l5.02-5.02-.52-.52,10.79-5.7,28.84,21.94v22.86l-44.12-33.56ZM570.76,479.5l-14.37-7.56,60.43-10.35,13.55,6.12-59.61,11.79ZM546.44,466.69l-14.23-7.49,59.52-8.95,13.94,6.3-59.24,10.15ZM521.97,453.82l-12.63-6.65,59.16-7.41,11.73,5.3-58.26,8.76ZM515.84,458.33l-28.54,31.63-17.31-9.11,28.54-31.63,17.31,9.11ZM442.78,519.15l18.27,9.65v37.96l-18.27-9.65v-37.96ZM467.89,532.41l44.49,23.49v37.96l-44.49-23.49v-37.96ZM536.58,614.39v36.81l-43.47-22.96v-36.81l43.47,22.96ZM543.42,646.64l41.23-44.39,9.56,7.27-27.07,29.14-23.72,12.53v-4.56ZM599.69,613.69l6.04,4.6-20.24,10.69,14.2-15.29ZM589.33,597.21l13.86-14.92,28.97,22.04-19.75,10.43-23.08-17.55ZM591.3,564.65l13.06-14.06,32.86,25.62v23.37l-45.92-34.93ZM592.23,532.44l12.93-13.92,32.06,24.38v24.62l-44.99-35.08ZM615.06,485.98l22.16-11.7v28.56l-22.16-16.86ZM540,426.88l16.54,7.47-45.78,5.73,29.24-13.21ZM488.45,450.17l-24.72,27.39-16.58-8.73,41.3-18.66ZM442.78,564.85l43.47,22.96v36.81l-43.47-22.96v-36.81Z"/>
</svg>